<svg id="Capa_1" enable-background="new 0 0 512.001 512.001" viewBox="0 0 512.001 512.001" width="40" height="40" xmlns="http://www.w3.org/2000/svg"><path d="m15.364 496.636c-9.818-9.818-9.818-25.737 0-35.555l365.036-365.05c9.819-9.819 25.738-9.819 35.557 0 9.818 9.818 9.818 25.737 0 35.555l-365.037 365.05c-9.818 9.819-25.738 9.819-35.556 0z" fill="#8c808a"/><path d="m403.229 118.859-365.037 365.049c-7.575 7.576-18.78 9.3-28.014 5.186 1.218 2.734 2.943 5.298 5.186 7.542 9.819 9.819 25.738 9.819 35.557 0l365.036-365.05c9.818-9.818 9.818-25.737 0-35.555-2.243-2.243-4.807-3.968-7.542-5.186 4.113 9.234 2.389 20.439-5.186 28.014z" fill="#7b7179"/><path d="m415.956 96.031c-9.818-9.819-25.737-9.819-35.555 0l-52.416 52.418 35.555 35.557 52.416-52.418c9.818-9.819 9.818-25.739 0-35.557z" fill="#e6e2e6"/><path d="m408.414 90.845c4.114 9.234 2.389 20.439-5.186 28.014l-52.417 52.419 12.728 12.728 52.416-52.418c9.818-9.819 9.818-25.738 0-35.556-2.242-2.245-4.806-3.969-7.541-5.187z" fill="#d8d1d7"/><g fill="#ffdc00"><path d="m223.072 45.428 1.87.838c8.546 3.83 15.385 10.669 19.215 19.216l.838 1.871c2.266 5.056 9.444 5.056 11.71 0l.838-1.87c3.83-8.546 10.669-15.386 19.215-19.216l1.87-.838c5.056-2.266 5.056-9.445 0-11.711l-1.87-.838c-8.546-3.83-15.385-10.669-19.215-19.216l-.838-1.87c-2.266-5.056-9.444-5.056-11.71 0l-.838 1.871c-3.83 8.546-10.669 15.385-19.215 19.215l-1.87.838c-5.056 2.266-5.056 9.444 0 11.71z"/><path d="m128.36 188.002 1.87.838c8.546 3.83 15.385 10.669 19.215 19.215l.839 1.871c2.266 5.056 9.444 5.056 11.71 0l.838-1.871c3.83-8.546 10.669-15.385 19.215-19.216l1.87-.838c5.056-2.266 5.056-9.445 0-11.711l-1.87-.838c-8.546-3.83-15.385-10.669-19.215-19.216l-.838-1.87c-2.266-5.056-9.444-5.056-11.71 0l-.839 1.871c-3.83 8.546-10.669 15.385-19.215 19.215l-1.87.838c-5.056 2.268-5.056 9.446 0 11.712z"/><path d="m444.651 45.428 1.87.838c8.546 3.83 15.385 10.669 19.215 19.216l.838 1.871c2.266 5.056 9.444 5.056 11.71 0l.838-1.87c3.83-8.546 10.669-15.386 19.215-19.216l1.87-.838c5.056-2.266 5.056-9.445 0-11.711l-1.87-.838c-8.546-3.83-15.385-10.669-19.215-19.216l-.838-1.87c-2.266-5.056-9.444-5.056-11.71 0l-.838 1.871c-3.83 8.546-10.669 15.385-19.215 19.215l-1.87.838c-5.056 2.266-5.056 9.444 0 11.71z"/><path d="m431.541 288.532 1.87.838c8.546 3.83 15.385 10.669 19.215 19.216l.839 1.871c2.266 5.056 9.444 5.056 11.71 0l.838-1.87c3.83-8.546 10.669-15.386 19.215-19.216l1.87-.838c5.056-2.266 5.056-9.445 0-11.711l-1.87-.838c-8.546-3.83-15.385-10.669-19.215-19.216l-.838-1.87c-2.266-5.056-9.444-5.056-11.71 0l-.839 1.871c-3.83 8.546-10.669 15.385-19.215 19.215l-1.87.838c-5.056 2.265-5.056 9.444 0 11.71z"/></g><path d="m219.926 51.875h.002l1.872.839c6.888 3.088 12.382 8.582 15.469 15.47l.84 1.874c2.278 5.083 7.153 8.241 12.723 8.241h.001c5.57 0 10.446-3.158 12.724-8.24l.841-1.874c3.087-6.889 8.581-12.383 15.467-15.47l1.876-.841c5.083-2.278 8.24-7.154 8.24-12.724 0-5.571-3.157-10.446-8.241-12.725l-1.874-.84c-6.888-3.087-12.382-8.58-15.469-15.469l-.84-1.874c-2.278-5.083-7.154-8.241-12.725-8.241-5.57 0-10.446 3.158-12.723 8.241l-.84 1.874c-3.088 6.888-8.581 12.382-15.469 15.469l-1.874.84c-5.083 2.278-8.241 7.154-8.241 12.725s3.157 10.447 8.241 12.725zm30.907-35.279c4.574 9.991 12.562 17.98 22.553 22.554-9.992 4.574-17.98 12.563-22.553 22.554-4.574-9.991-12.561-17.979-22.554-22.554 9.991-4.574 17.98-12.563 22.554-22.554z"/><path d="m125.025 194.732 1.874.84c6.888 3.087 12.381 8.581 15.47 15.471l.839 1.872c2.277 5.084 7.153 8.243 12.723 8.243h.001c5.57 0 10.446-3.158 12.724-8.241l.84-1.874c3.087-6.889 8.581-12.383 15.469-15.47l1.875-.84c5.083-2.278 8.24-7.154 8.24-12.725 0-5.57-3.158-10.446-8.241-12.725l-1.874-.84c-6.888-3.087-12.382-8.581-15.469-15.47l-.84-1.874c-2.279-5.083-7.154-8.242-12.726-8.241-5.57 0-10.445 3.158-12.723 8.24l-.841 1.876c-3.087 6.889-8.581 12.382-15.469 15.47l-1.873.839c-5.083 2.279-8.241 7.154-8.241 12.725.001 5.57 3.159 10.446 8.242 12.724zm30.908-35.278c4.574 9.992 12.563 17.98 22.554 22.554-9.992 4.574-17.98 12.563-22.554 22.555-4.574-9.993-12.562-17.981-22.554-22.554 9.991-4.575 17.98-12.564 22.554-22.555z"/><path d="m503.761 26.426-1.874-.84c-6.888-3.087-12.382-8.581-15.469-15.469l-.84-1.874c-2.278-5.083-7.153-8.242-12.724-8.242 0 0 0 0-.001 0-5.57 0-10.446 3.158-12.725 8.241l-.84 1.874c-3.087 6.889-8.581 12.382-15.469 15.47l-1.873.84c-5.083 2.278-8.241 7.154-8.241 12.725s3.158 10.447 8.241 12.725h.001l1.872.839c6.889 3.088 12.383 8.582 15.469 15.47l.84 1.874c2.279 5.083 7.154 8.241 12.725 8.241 5.57 0 10.445-3.158 12.723-8.24l.84-1.874c3.087-6.889 8.581-12.383 15.468-15.47l1.875-.84c5.083-2.278 8.241-7.154 8.241-12.725.001-5.572-3.157-10.447-8.239-12.725zm-30.908 35.278c-4.574-9.991-12.561-17.979-22.554-22.554 9.992-4.574 17.98-12.563 22.554-22.554 4.574 9.992 12.562 17.981 22.554 22.554-9.993 4.574-17.981 12.563-22.554 22.554z"/><path d="m490.624 270.012-1.874-.84c-6.888-3.087-12.382-8.581-15.469-15.469l-.84-1.874c-2.278-5.083-7.154-8.242-12.725-8.241-5.57 0-10.446 3.158-12.723 8.239l-.842 1.876c-3.087 6.889-8.581 12.382-15.468 15.469l-1.874.84c-5.083 2.279-8.241 7.154-8.241 12.725s3.158 10.447 8.241 12.725h.001l1.872.839c6.888 3.088 12.382 8.582 15.47 15.472l.84 1.872c2.278 5.083 7.153 8.242 12.724 8.242h.001c5.57 0 10.446-3.158 12.724-8.241l.84-1.874c3.087-6.889 8.581-12.383 15.467-15.469l1.876-.84c5.083-2.278 8.24-7.154 8.24-12.725.001-5.572-3.157-10.448-8.24-12.726zm-30.907 35.279c-4.574-9.991-12.561-17.979-22.554-22.555 9.992-4.574 17.98-12.563 22.554-22.555 4.574 9.992 12.563 17.98 22.553 22.555-9.992 4.574-17.98 12.563-22.553 22.555z"/><path d="m224.767 312.226-179.576 179.583c-6.893 6.893-18.107 6.892-25 0-6.892-6.892-6.892-18.106 0-24.998l45.002-45.004c2.935-2.935 2.935-7.693 0-10.628s-7.693-2.934-10.628 0l-45.001 45.004c-12.752 12.752-12.752 33.501 0 46.253 6.376 6.377 14.752 9.564 23.127 9.564s16.751-3.188 23.127-9.564l179.576-179.582c2.935-2.935 2.935-7.693 0-10.628-2.934-2.935-7.693-2.934-10.627 0z"/><path d="m421.581 90.407c-6.177-6.178-14.391-9.58-23.127-9.58s-16.95 3.402-23.128 9.58l-12.492 12.493c-2.935 2.935-2.934 7.693 0 10.628 2.936 2.935 7.693 2.934 10.628-.001l12.491-12.493c3.339-3.339 7.778-5.178 12.5-5.178s9.161 1.839 12.5 5.178c6.892 6.892 6.892 18.106 0 24.998l-47.207 47.209-24.998-24.999 13.459-13.46c2.935-2.935 2.935-7.693 0-10.627-2.935-2.936-7.693-2.935-10.628 0l-18.771 18.772c-.001.001-.001.001-.002.002s-.001.001-.002.002l-246.983 246.992c-2.736 2.736-2.918 7.255-.399 10.196 2.81 3.282 7.97 3.488 11.027.431l241.671-241.68 24.999 25-107.097 107.101c-2.736 2.736-2.918 7.255-.399 10.196 2.81 3.282 7.97 3.488 11.027.431l164.931-164.938c12.752-12.751 12.752-33.501 0-46.253z"/></svg>